<?xml version="1.0" encoding="UTF-8"?><svg id="_レイヤー_2" xmlns="http://www.w3.org/2000/svg" width="22.18" height="21.08" viewBox="0 0 22.18 21.08"><g id="_レイヤー_1-2"><g><path d="m21.81,9.37L11.86.3c-.44-.4-1.1-.4-1.53,0L.37,9.37c-.35.32-.47.81-.29,1.25.17.44.59.73,1.06.73h1.59v9.09c0,.36.29.65.65.65h5.45c.36,0,.65-.29.65-.65v-5.52h3.21v5.52c0,.36.29.65.65.65h5.45c.36,0,.65-.29.65-.65v-9.09h1.59c.47,0,.89-.29,1.06-.73.17-.44.06-.93-.29-1.25Z" style="fill:#999;"/><path d="m19.28,1.3h-4.38l5.03,4.58V1.95c0-.36-.29-.65-.65-.65Z" style="fill:#999;"/></g></g></svg>