<svg width="24" height="26" viewBox="0 0 24 26" fill="none" xmlns="http://www.w3.org/2000/svg">
<path d="M1.25 10.0536C1.25 9.75432 1.38402 9.47079 1.61526 9.28084L11.1153 1.47727C11.4842 1.17424 12.0158 1.17424 12.3847 1.47727L21.8847 9.28084C22.116 9.47079 22.25 9.75432 22.25 10.0536V22.9559C22.25 23.5082 21.8023 23.9559 21.25 23.9559H16.0658C15.5135 23.9559 15.0658 23.5082 15.0658 22.9559V18.0559C15.0658 17.5036 14.6181 17.0559 14.0658 17.0559H9.43421C8.88193 17.0559 8.43421 17.5036 8.43421 18.0559V22.9559C8.43421 23.5082 7.9865 23.9559 7.43421 23.9559H2.25C1.69772 23.9559 1.25 23.5082 1.25 22.9559L1.25 10.0536Z" fill="#1A1A1A" stroke="#1A1A1A" stroke-width="2.5"/>
</svg>
