<svg id="_レイヤー_2" xmlns="http://www.w3.org/2000/svg" width="165.66" height="13.92" viewBox="0 0 165.66 13.92"><g id="_レイヤー_1-2"><g><path d="m11.06,13.1c-.78.28-2.32.74-4.14.74-2.04,0-3.72-.52-5.04-1.78-1.16-1.12-1.88-2.92-1.88-5.02C.02,3.02,2.78.08,7.3.08c1.56,0,2.78.34,3.36.62l-.42,1.42c-.72-.32-1.62-.58-2.98-.58C3.98,1.54,1.84,3.58,1.84,6.96s2.06,5.44,5.2,5.44c1.14,0,1.92-.16,2.32-.36v-4.02h-2.74v-1.4h4.44v6.48Z" style="fill:#333;"/><path d="m20.66.22v7.98c0,3.02,1.34,4.3,3.14,4.3,2,0,3.28-1.32,3.28-4.3V.22h1.76v7.86c0,4.14-2.18,5.84-5.1,5.84-2.76,0-4.84-1.58-4.84-5.76V.22h1.76Z" style="fill:#333;"/><path d="m38.8.22v13.48h-1.74V.22h1.74Z" style="fill:#333;"/><path d="m49.6,1.7h-4.1V.22h9.98v1.48h-4.12v12h-1.76V1.7Z" style="fill:#333;"/><path d="m64.74,1.7h-4.1V.22h9.98v1.48h-4.12v12h-1.76V1.7Z" style="fill:#333;"/><path d="m88.84,6.82c0,4.64-2.82,7.1-6.26,7.1s-6.06-2.76-6.06-6.84c0-4.28,2.66-7.08,6.26-7.08s6.06,2.82,6.06,6.82Zm-10.46.22c0,2.88,1.56,5.46,4.3,5.46s4.32-2.54,4.32-5.6c0-2.68-1.4-5.48-4.3-5.48s-4.32,2.66-4.32,5.62Z" style="fill:#333;"/><path d="m105.74.4c.76-.16,1.96-.28,3.18-.28,1.74,0,2.86.3,3.7.98.7.52,1.12,1.32,1.12,2.38,0,1.3-.86,2.44-2.28,2.96v.04c1.28.32,2.78,1.38,2.78,3.38,0,1.16-.46,2.04-1.14,2.7-.94.86-2.46,1.26-4.66,1.26-1.2,0-2.12-.08-2.7-.16V.4Zm1.74,5.52h1.58c1.84,0,2.92-.96,2.92-2.26,0-1.58-1.2-2.2-2.96-2.2-.8,0-1.26.06-1.54.12v4.34Zm0,6.46c.34.06.84.08,1.46.08,1.8,0,3.46-.66,3.46-2.62,0-1.84-1.58-2.6-3.48-2.6h-1.44v5.14Z" style="fill:#333;"/><path d="m121.78.22h1.74v12.02h5.76v1.46h-7.5V.22Z" style="fill:#333;"/><path d="m147.94,6.82c0,4.64-2.82,7.1-6.26,7.1s-6.06-2.76-6.06-6.84c0-4.28,2.66-7.08,6.26-7.08s6.06,2.82,6.06,6.82Zm-10.46.22c0,2.88,1.56,5.46,4.3,5.46s4.32-2.54,4.32-5.6c0-2.68-1.4-5.48-4.3-5.48s-4.32,2.66-4.32,5.62Z" style="fill:#333;"/><path d="m165.66,13.1c-.78.28-2.32.74-4.14.74-2.04,0-3.72-.52-5.04-1.78-1.16-1.12-1.88-2.92-1.88-5.02.02-4.02,2.78-6.96,7.3-6.96,1.56,0,2.78.34,3.36.62l-.42,1.42c-.72-.32-1.62-.58-2.98-.58-3.28,0-5.42,2.04-5.42,5.42s2.06,5.44,5.2,5.44c1.14,0,1.92-.16,2.32-.36v-4.02h-2.74v-1.4h4.44v6.48Z" style="fill:#333;"/></g></g></svg>