<svg width="202" height="59" viewBox="0 0 202 59" fill="none" xmlns="http://www.w3.org/2000/svg">
<g clip-path="url(#clip0_196_525)">
<path d="M149.786 21.8833C118.202 -34.0766 46.9353 33.8383 0 43.2445C47.3174 40.1807 111.078 -26.9937 149.786 21.8833Z" fill="white"/>
<path d="M193.816 26.9324C179.326 13.7433 154.155 16.4798 142.237 31.708C159.837 13.5769 192.024 21.4325 202 43.6361C201.575 37.444 198.503 31.3377 193.816 26.9324Z" fill="white"/>
<path d="M103.158 44.6988C104.632 44.6988 105.826 43.5073 105.826 42.0374C105.826 40.5675 104.632 39.376 103.158 39.376C101.684 39.376 100.489 40.5675 100.489 42.0374C100.489 43.5073 101.684 44.6988 103.158 44.6988Z" fill="white"/>
<path d="M54.2852 43.9311C53.7687 41.9941 52.9401 40.0356 50.169 40.0356C47.9684 40.0356 47.1075 41.6346 47.1075 43.1906C47.1075 45.1545 48.3719 46.174 50.8524 47.4457C54.3337 49.2272 55.9586 50.6169 55.9586 53.4393C55.9586 56.6051 53.2306 58.9983 49.3351 58.9983C47.5379 58.9983 45.9721 58.4993 44.7292 58.0378C44.5032 57.2383 44.1212 55.0383 43.9167 53.4822L44.8745 53.2408C45.4664 55.1939 46.8331 57.8822 49.8785 57.8822C51.95 57.8822 53.2145 56.471 53.2145 54.5554C53.2145 52.3823 52.0254 51.454 49.448 50.0535C46.3488 48.3794 44.5517 46.9521 44.5517 44.1458C44.5517 41.3394 46.7846 38.9624 50.7878 38.9624C52.515 38.9624 54.1238 39.4078 54.7534 39.5204C54.8717 40.5882 55.0062 41.8331 55.243 43.738L54.2906 43.9311H54.2852Z" fill="white"/>
<path d="M81.4307 40.2506C79.5636 40.3794 78.9125 40.8677 78.8426 42.1716C78.8049 42.8852 78.7457 44.0818 78.7457 46.6842V49.9949C78.7457 52.9192 78.3799 55.2695 76.6688 57.0616C75.2806 58.4997 73.2575 58.9772 71.2021 58.9772C69.4426 58.9772 67.5863 58.6123 66.268 57.5875C64.5032 56.2407 63.6477 54.2446 63.6477 50.8212V43.3091C63.6477 40.6423 63.4055 40.4599 61.0596 40.256V39.3813H69.0875V40.256C66.7469 40.4116 66.5048 40.6423 66.5048 43.3091V50.7729C66.5048 54.8992 68.4741 57.228 71.9554 57.228C76.0339 57.228 77.4006 54.6309 77.4006 49.8178V46.6842C77.4006 44.0925 77.3091 42.9818 77.2553 42.1662C77.1638 40.8355 76.4536 40.3687 74.2852 40.2506V39.376H81.4307V40.2506Z" fill="white"/>
<path d="M132.197 39.376C134.338 39.376 136.044 39.7623 137.255 40.6316C138.465 41.5062 139.272 42.9013 139.272 44.8652C139.272 49.1686 135.587 50.9178 132.708 50.9232C132.391 50.9232 132.079 50.891 131.896 50.8641L129.91 50.349V54.8456C129.91 57.3246 130.115 57.3943 132.81 57.6787V58.5533H124.422V57.6787C126.908 57.4104 127.058 57.2494 127.058 54.7973V43.1642C127.058 40.5672 126.741 40.4706 124.422 40.2506V39.376H132.197ZM129.916 49.2812C130.271 49.4583 131.035 49.6515 131.971 49.6515C133.843 49.6515 136.254 48.6856 136.254 44.9349C136.254 41.6779 134.182 40.4169 131.799 40.4169C130.981 40.4169 130.411 40.5672 130.233 40.7604C130.002 40.9643 129.921 41.3023 129.921 42.0374V49.2812H129.916Z" fill="white"/>
<path d="M118.589 48.5889H111.724V49.3508H118.589V48.5889Z" fill="white"/>
<path d="M105.557 57.625C104.96 57.3085 104.799 57.1046 104.514 56.7933L102.77 54.7222L102.727 54.6846L90.1204 39.376H85.45V40.2506C86.2086 40.3257 86.7359 40.4116 87.1556 40.5833C87.5161 40.7335 87.7959 40.9482 88.0542 41.2916C88.3286 41.635 88.4793 41.9355 88.56 42.2574C88.6353 42.5686 88.6514 42.9013 88.6514 43.3145V50.7407C88.6514 53.4022 88.5922 54.6846 88.4954 55.6504C88.3663 57.0885 87.6506 57.5285 85.8427 57.6787V58.5533H93.0582V57.6787C90.9167 57.5124 90.2011 57.0294 90.1311 55.5592C90.0665 54.7061 89.9804 53.4075 89.9804 50.7676V43.5184L102.587 58.827H107.258V57.9524C106.499 57.8772 105.972 57.7914 105.552 57.6197L105.557 57.625Z" fill="white"/>
<path d="M159.703 53.7023C159.515 54.6788 158.638 57.7588 158.347 58.6549H144.422V57.7803C147.096 57.5281 147.338 57.3725 147.338 54.872V43.2443C147.338 40.7439 147.042 40.5775 144.702 40.3522V39.4775H152.864V40.3522C150.507 40.5829 150.19 40.717 150.19 43.2443V55.151C150.19 56.9217 150.394 57.3886 152.073 57.4208C152.111 57.4208 154.102 57.4529 154.268 57.4529C155.807 57.4529 156.254 57.2437 156.937 56.4978C157.647 55.7627 158.293 54.5662 158.751 53.4554L159.703 53.713V53.7023Z" fill="white"/>
<path d="M176.195 58.655V57.7803C178.105 57.5389 178.304 57.2384 177.889 56.0901C177.518 54.9848 176.948 53.536 176.361 51.8028H170.082C169.636 53.0584 169.194 54.2014 168.802 55.3604C168.156 57.2652 168.624 57.5013 171.034 57.7803V58.655H164.115V57.7803C165.977 57.5442 166.45 57.3296 167.483 54.7057L173.612 39.2576L174.645 39.0645C176.512 44.1244 178.551 49.6458 180.424 54.7165C181.398 57.3135 181.661 57.5442 183.733 57.7803V58.655H176.195ZM173.3 43.2176C172.369 45.6805 171.395 48.24 170.534 50.5365H175.92L173.3 43.2176Z" fill="white"/>
</g>
<defs>
<clipPath id="clip0_196_525">
<rect width="202" height="59" fill="white"/>
</clipPath>
</defs>
</svg>
